<svg id="Layer_1" data-name="Layer 1" xmlns="http://www.w3.org/2000/svg" viewBox="0 0 887.95 887.95"><defs><style>.cls-1{fill:#fefefe;fill-rule:evenodd;}</style></defs><path class="cls-1" d="M1427.36,816H1302.17a342.22,342.22,0,0,1,64.72,100,346.06,346.06,0,0,1,8.39,246.26L1348.82,1110l-60.71-120-37.44-73.94L1200,816H1080v468h120V1082.24l14.06,27.76,37.44,74.06,50.67,99.92h125.19c1.77-2.72,3.55-5.55,5.2-8.51a443.31,443.31,0,0,0-5.2-459.45Z" transform="translate(-606.02 -606.02)"/><path class="cls-1" d="M1182.52,732.4c5.91,2.48,11.69,5.2,17.48,7.92,9.8,4.84,19.37,10,28.7,15.7h154A442.71,442.71,0,0,0,1080,607c-9.92-.59-20-1-30-1s-20.08.36-30,1A442.71,442.71,0,0,0,717.28,756h154c9.33-5.67,18.9-10.86,28.7-15.7,5.79-2.72,11.57-5.44,17.6-7.92A344.73,344.73,0,0,1,1020,707.24c9.92-.82,20-1.18,30-1.18s20.08.36,30,1.18a345.5,345.5,0,0,1,102.52,25.16Z" transform="translate(-606.02 -606.02)"/><path class="cls-1" d="M917.6,1367.6c-6-2.48-11.81-5.08-17.6-7.91-9.8-4.85-19.37-10-28.7-15.71h-154A442.71,442.71,0,0,0,1020,1493c9.92.59,20,1,30,1s20.08-.36,30-1a442.71,442.71,0,0,0,302.72-149h-154c-9.33,5.67-18.9,10.86-28.7,15.71-5.79,2.83-11.57,5.43-17.48,7.91A345.5,345.5,0,0,1,1080,1392.76c-9.92.82-19.84,1.3-30,1.3s-20.08-.48-30-1.3a344.73,344.73,0,0,1-102.4-25.16Z" transform="translate(-606.02 -606.02)"/><path class="cls-1" d="M1020,990V816H672.64a442.93,442.93,0,0,0,0,468H1020V1110H900v74.06H733.11A341.29,341.29,0,0,1,711.26,1110a348.75,348.75,0,0,1,0-120,338.3,338.3,0,0,1,21.85-73.94H900V990Z" transform="translate(-606.02 -606.02)"/></svg>